<?xml version="1.0" standalone="no"?>
<!DOCTYPE svg PUBLIC "-//W3C//DTD SVG 20010904//EN"
 "http://www.w3.org/TR/2001/REC-SVG-20010904/DTD/svg10.dtd">
<svg version="1.0" xmlns="http://www.w3.org/2000/svg"
 width="512.000000pt" height="512.000000pt" viewBox="0 0 512.000000 512.000000"
 preserveAspectRatio="xMidYMid meet">
<metadata>
Created by potrace 1.11, written by Peter Selinger 2001-2013
</metadata>
<g transform="translate(0.000000,512.000000) scale(0.100000,-0.100000)"
fill="#000000" stroke="none">
<path d="M2407 5044 c-1 -1 -36 -5 -77 -8 -226 -20 -502 -88 -722 -177 -82
-34 -321 -160 -398 -211 -192 -126 -451 -355 -565 -500 -22 -28 -48 -60 -58
-72 -44 -50 -189 -279 -235 -371 -151 -296 -212 -493 -268 -860 -3 -22 -8
-119 -10 -215 -5 -218 9 -294 84 -460 26 -59 98 -154 155 -206 51 -47 140 -99
185 -109 12 -3 32 -7 44 -10 50 -13 166 -4 222 15 80 27 118 52 174 116 87 97
150 248 232 552 80 295 121 435 126 429 4 -3 42 -222 49 -283 3 -27 10 -74 15
-104 9 -56 15 -105 25 -195 3 -27 7 -63 10 -80 2 -16 9 -70 15 -120 6 -49 13
-101 15 -115 2 -14 6 -47 10 -75 10 -87 35 -227 56 -320 71 -318 179 -458 354
-458 96 0 158 26 226 94 124 124 207 373 284 849 23 143 21 139 56 89 47 -66
116 -124 170 -143 92 -34 200 -15 251 43 54 60 117 216 164 406 37 148 119
490 140 582 15 68 29 122 31 120 1 -2 5 -23 8 -48 13 -112 15 -138 20 -199 3
-36 7 -81 10 -100 2 -19 6 -57 9 -85 16 -139 22 -187 36 -285 5 -36 12 -87 15
-115 4 -27 11 -69 16 -93 5 -23 12 -59 15 -80 12 -85 59 -263 91 -350 86 -232
193 -337 354 -346 85 -4 142 8 224 49 186 93 295 271 449 740 37 110 71 208
76 217 6 10 10 22 10 27 0 16 60 140 70 146 6 4 22 -20 36 -52 21 -47 27 -74
27 -143 1 -82 -8 -212 -18 -275 -5 -31 -17 -96 -20 -105 -1 -3 -5 -25 -9 -50
-9 -45 -83 -286 -94 -305 -4 -5 -7 -15 -8 -21 -4 -29 -132 -269 -188 -354
-314 -475 -799 -800 -1356 -907 -118 -22 -246 -31 -415 -28 -104 2 -206 6
-225 9 -19 3 -50 8 -68 10 -19 3 -77 15 -130 26 -308 70 -626 228 -871 433
-81 68 -83 70 -63 86 11 9 73 56 136 106 72 55 111 92 103 96 -6 3 -50 11 -97
18 -47 6 -96 13 -110 16 -14 2 -72 11 -130 19 -58 9 -116 18 -130 20 -14 3
-59 10 -100 16 -41 6 -86 13 -100 16 -81 13 -120 16 -121 8 -4 -25 -7 -57 -13
-136 -4 -48 -9 -98 -11 -110 -2 -13 -6 -54 -10 -93 -3 -38 -8 -88 -10 -110 -3
-22 -7 -67 -10 -100 -12 -144 -16 -192 -21 -217 -3 -16 -2 -28 3 -28 4 0 58
39 118 86 170 133 143 127 227 49 282 -262 717 -492 1078 -570 8 -2 44 -10 80
-19 36 -8 90 -18 120 -21 30 -4 57 -8 60 -10 12 -8 202 -19 320 -19 175 0 307
10 435 34 28 5 61 11 75 14 63 10 265 68 356 101 151 55 386 175 514 261 538
360 903 882 1054 1504 24 100 30 133 42 225 3 22 8 51 10 65 3 14 7 99 11 190
4 147 3 174 -16 250 -51 202 -158 353 -301 423 -58 29 -74 32 -155 32 -82 0
-97 -3 -156 -32 -110 -55 -197 -154 -269 -309 -17 -38 -65 -166 -105 -284 -80
-236 -77 -228 -112 -320 -43 -112 -106 -225 -130 -234 -13 -5 -55 114 -73 204
-5 25 -12 56 -15 70 -10 50 -31 172 -40 235 -3 22 -8 56 -11 75 -2 19 -7 52
-9 73 -3 20 -7 52 -9 70 -3 17 -7 59 -11 92 -4 33 -8 71 -10 85 -5 34 -16 146
-30 295 -4 44 -9 91 -10 105 -1 14 -6 61 -10 105 -3 44 -8 91 -10 105 -2 14
-7 61 -11 105 -3 44 -8 87 -9 95 -2 8 -6 44 -10 80 -4 36 -8 72 -10 80 -1 8
-6 35 -10 60 -3 25 -8 56 -11 70 -17 107 -54 196 -103 247 -49 52 -87 67 -167
67 -62 0 -78 -4 -119 -29 -28 -17 -64 -53 -86 -85 -34 -49 -102 -201 -114
-255 -2 -11 -16 -58 -30 -105 -34 -112 -199 -776 -212 -855 -2 -11 -16 -71
-32 -134 -27 -113 -28 -114 -44 -90 -129 184 -193 230 -317 228 -122 -2 -192
-76 -239 -251 -18 -67 -52 -237 -66 -333 -3 -22 -7 -47 -10 -55 -2 -8 -6 -35
-9 -60 -3 -25 -13 -81 -21 -125 -9 -44 -18 -96 -21 -116 -9 -61 -42 -175 -44
-151 -2 12 -3 25 -4 30 -1 4 -6 32 -10 62 -11 80 -16 112 -21 140 -2 14 -7 50
-10 81 -3 31 -7 65 -9 75 -2 11 -7 53 -11 94 -4 41 -8 77 -10 80 -2 3 -6 39
-10 80 -4 41 -9 78 -11 81 -2 3 -6 30 -9 60 -3 30 -7 65 -9 79 -3 14 -7 43
-11 64 -3 21 -7 48 -10 60 -2 12 -7 38 -10 59 -27 197 -103 404 -180 494 -95
111 -276 130 -409 41 -99 -65 -177 -197 -251 -422 -36 -110 -77 -253 -90 -316
-8 -41 -60 -217 -90 -310 -35 -106 -67 -170 -84 -170 -5 0 -27 20 -48 44 -57
65 -85 153 -86 273 -1 94 10 270 17 282 2 3 7 29 10 56 22 166 111 428 207
610 46 88 169 277 221 340 352 425 816 685 1358 760 101 13 477 15 540 2 14
-3 47 -8 73 -12 339 -42 693 -189 947 -392 91 -72 231 -213 224 -225 -3 -4
-68 -56 -146 -115 -154 -117 -154 -117 -48 -127 28 -3 54 -7 58 -9 4 -3 31 -8
61 -11 29 -4 56 -8 60 -10 3 -2 33 -7 66 -11 32 -3 62 -8 65 -10 3 -1 25 -6
50 -9 25 -3 57 -8 73 -11 15 -3 39 -7 55 -10 15 -2 38 -7 52 -9 14 -3 42 -8
63 -11 20 -3 53 -8 72 -11 31 -5 35 -3 36 18 0 13 2 30 3 38 3 14 9 63 22 190
2 25 6 63 9 85 2 22 13 126 25 230 11 105 22 202 24 217 l4 28 -41 -30 c-23
-17 -82 -61 -132 -99 l-90 -70 -29 32 c-221 243 -388 373 -654 506 -222 112
-522 206 -752 236 -30 4 -62 9 -70 10 -68 12 -502 28 -513 19z"/>
</g>
</svg>
